<svg xmlns="http://www.w3.org/2000/svg" xmlns:xlink="http://www.w3.org/1999/xlink" width="500" zoomAndPan="magnify" viewBox="0 0 375 374.999991" height="500" preserveAspectRatio="xMidYMid meet" version="1.0"><defs><g/></defs><rect x="-37.5" width="450" fill="#ffffff" y="-37.499999" height="449.999989" fill-opacity="1"/><rect x="-37.5" width="450" fill="#000000" y="-37.499999" height="449.999989" fill-opacity="1"/><g fill="#fafafa" fill-opacity="1"><g transform="translate(89.773383, 217.802739)"><g><path d="M 44.921875 -30.125 C 47.378906 -29.769531 49.445312 -28.957031 51.125 -27.6875 C 52.800781 -26.414062 54.257812 -24.582031 55.5 -22.1875 L 64.515625 -5 L 70.84375 -5 L 70.84375 0 L 50.546875 0 L 40.703125 -18.640625 C 38.804688 -22.492188 37.1875 -24.953125 35.84375 -26.015625 C 34.507812 -27.078125 32.660156 -27.609375 30.296875 -27.609375 L 27.765625 -27.609375 L 27.765625 -5 L 35.703125 -5 L 35.703125 0 L 3.96875 0 L 3.96875 -5 L 11.859375 -5 L 11.859375 -56.703125 L 3.96875 -56.703125 L 3.96875 -61.703125 L 39.171875 -61.703125 C 46.335938 -61.703125 51.867188 -60.257812 55.765625 -57.375 C 59.671875 -54.5 61.625 -50.414062 61.625 -45.125 C 61.625 -40.832031 60.238281 -37.4375 57.46875 -34.9375 C 54.695312 -32.445312 50.515625 -30.84375 44.921875 -30.125 Z M 27.765625 -32.5625 L 33.1875 -32.5625 C 37.039062 -32.5625 40.007812 -33.609375 42.09375 -35.703125 C 44.175781 -37.796875 45.21875 -40.785156 45.21875 -44.671875 C 45.21875 -48.554688 44.175781 -51.53125 42.09375 -53.59375 C 40.007812 -55.664062 37.039062 -56.703125 33.1875 -56.703125 L 27.765625 -56.703125 Z M 27.765625 -32.5625 "/></g></g></g><g fill="#fafafa" fill-opacity="1"><g transform="translate(160.11407, 217.802739)"><g><path d="M 36.328125 -19.796875 L 36.328125 -24.140625 C 36.328125 -29.265625 35.664062 -32.96875 34.34375 -35.25 C 33.019531 -37.539062 30.910156 -38.6875 28.015625 -38.6875 C 24.984375 -38.6875 22.851562 -37.476562 21.625 -35.0625 C 20.40625 -32.65625 19.796875 -28.296875 19.796875 -21.984375 C 19.796875 -15.671875 20.414062 -11.300781 21.65625 -8.875 C 22.894531 -6.457031 25.015625 -5.25 28.015625 -5.25 C 30.910156 -5.25 33.019531 -6.390625 34.34375 -8.671875 C 35.664062 -10.960938 36.328125 -14.671875 36.328125 -19.796875 Z M 50.953125 -5 L 57.203125 -5 L 57.203125 0 L 36.328125 0 L 36.328125 -5.578125 C 35.085938 -3.296875 33.410156 -1.59375 31.296875 -0.46875 C 29.191406 0.644531 26.597656 1.203125 23.515625 1.203125 C 17.285156 1.203125 12.382812 -0.863281 8.8125 -5 C 5.25 -9.132812 3.46875 -14.796875 3.46875 -21.984375 C 3.46875 -29.203125 5.25 -34.863281 8.8125 -38.96875 C 12.382812 -43.070312 17.285156 -45.125 23.515625 -45.125 C 26.597656 -45.125 29.191406 -44.566406 31.296875 -43.453125 C 33.410156 -42.335938 35.085938 -40.640625 36.328125 -38.359375 L 36.328125 -59.34375 L 30.046875 -59.34375 L 30.046875 -64.3125 L 50.953125 -64.3125 Z M 50.953125 -5 "/></g></g></g><g fill="#fafafa" fill-opacity="1"><g transform="translate(219.296128, 217.802739)"><g><path d="M 40.953125 -53.3125 L 36.328125 -53.3125 C 36.109375 -55.457031 35.476562 -57.050781 34.4375 -58.09375 C 33.40625 -59.144531 31.941406 -59.671875 30.046875 -59.671875 C 27.835938 -59.671875 26.238281 -58.878906 25.25 -57.296875 C 24.257812 -55.710938 23.765625 -53.144531 23.765625 -49.59375 L 23.765625 -43.9375 L 34.796875 -43.9375 L 34.796875 -38.9375 L 23.765625 -38.9375 L 23.765625 -5 L 32.234375 -5 L 32.234375 0 L 2.890625 0 L 2.890625 -5 L 9.140625 -5 L 9.140625 -38.9375 L 2.609375 -38.9375 L 2.609375 -43.9375 L 9.140625 -43.9375 L 9.140625 -49.421875 C 9.140625 -54.304688 10.691406 -58.007812 13.796875 -60.53125 C 16.910156 -63.050781 21.488281 -64.3125 27.53125 -64.3125 C 29.863281 -64.3125 32.144531 -64.175781 34.375 -63.90625 C 36.613281 -63.644531 38.804688 -63.253906 40.953125 -62.734375 Z M 40.953125 -53.3125 "/></g></g></g><g fill="#fafafa" fill-opacity="1"><g transform="translate(255.706341, 217.802739)"><g><path d="M 6.859375 -6.6875 C 6.859375 -8.84375 7.628906 -10.691406 9.171875 -12.234375 C 10.710938 -13.773438 12.5625 -14.546875 14.71875 -14.546875 C 16.894531 -14.546875 18.753906 -13.773438 20.296875 -12.234375 C 21.835938 -10.691406 22.609375 -8.84375 22.609375 -6.6875 C 22.609375 -4.519531 21.835938 -2.660156 20.296875 -1.109375 C 18.753906 0.429688 16.894531 1.203125 14.71875 1.203125 C 12.5625 1.203125 10.710938 0.429688 9.171875 -1.109375 C 7.628906 -2.660156 6.859375 -4.519531 6.859375 -6.6875 Z M 6.859375 -6.6875 "/></g></g></g></svg>