<svg xmlns="http://www.w3.org/2000/svg" xmlns:xlink="http://www.w3.org/1999/xlink" width="500" zoomAndPan="magnify" viewBox="0 0 375 374.999991" height="500" preserveAspectRatio="xMidYMid meet" version="1.0"><defs><g/></defs><g fill="#fafafa" fill-opacity="1"><g transform="translate(75.044569, 205.178545)"><g><path d="M 26.203125 -17.578125 C 27.640625 -17.367188 28.847656 -16.894531 29.828125 -16.15625 C 30.804688 -15.414062 31.65625 -14.347656 32.375 -12.953125 L 37.640625 -2.921875 L 41.328125 -2.921875 L 41.328125 0 L 29.484375 0 L 23.75 -10.875 C 22.632812 -13.125 21.6875 -14.554688 20.90625 -15.171875 C 20.132812 -15.796875 19.054688 -16.109375 17.671875 -16.109375 L 16.203125 -16.109375 L 16.203125 -2.921875 L 20.828125 -2.921875 L 20.828125 0 L 2.3125 0 L 2.3125 -2.921875 L 6.921875 -2.921875 L 6.921875 -33.078125 L 2.3125 -33.078125 L 2.3125 -36 L 22.859375 -36 C 27.035156 -36 30.257812 -35.15625 32.53125 -33.46875 C 34.8125 -31.789062 35.953125 -29.410156 35.953125 -26.328125 C 35.953125 -23.816406 35.140625 -21.832031 33.515625 -20.375 C 31.898438 -18.925781 29.460938 -17.992188 26.203125 -17.578125 Z M 16.203125 -19 L 19.359375 -19 C 21.609375 -19 23.335938 -19.609375 24.546875 -20.828125 C 25.765625 -22.046875 26.375 -23.789062 26.375 -26.0625 C 26.375 -28.332031 25.765625 -30.066406 24.546875 -31.265625 C 23.335938 -32.472656 21.609375 -33.078125 19.359375 -33.078125 L 16.203125 -33.078125 Z M 16.203125 -19 "/></g></g></g><g fill="#fafafa" fill-opacity="1"><g transform="translate(116.081229, 205.178545)"><g><path d="M 19.796875 -14.46875 C 19.796875 -17.84375 19.476562 -20.207031 18.84375 -21.5625 C 18.21875 -22.925781 17.148438 -23.609375 15.640625 -23.609375 C 14.179688 -23.609375 13.132812 -22.9375 12.5 -21.59375 C 11.863281 -20.257812 11.546875 -18.03125 11.546875 -14.90625 L 11.546875 -14.46875 Z M 29.171875 -11.59375 L 11.546875 -11.59375 L 11.546875 -11.40625 C 11.546875 -8.09375 12.039062 -5.703125 13.03125 -4.234375 C 14.03125 -2.765625 15.640625 -2.03125 17.859375 -2.03125 C 19.710938 -2.03125 21.207031 -2.519531 22.34375 -3.5 C 23.488281 -4.476562 24.222656 -5.898438 24.546875 -7.765625 L 28.546875 -7.765625 C 27.859375 -4.859375 26.484375 -2.71875 24.421875 -1.34375 C 22.367188 0.0195312 19.492188 0.703125 15.796875 0.703125 C 11.359375 0.703125 7.953125 -0.460938 5.578125 -2.796875 C 3.210938 -5.140625 2.03125 -8.484375 2.03125 -12.828125 C 2.03125 -17.066406 3.242188 -20.375 5.671875 -22.75 C 8.097656 -25.132812 11.472656 -26.328125 15.796875 -26.328125 C 20.035156 -26.328125 23.285156 -25.078125 25.546875 -22.578125 C 27.816406 -20.078125 29.023438 -16.414062 29.171875 -11.59375 Z M 29.171875 -11.59375 "/></g></g></g><g fill="#fafafa" fill-opacity="1"><g transform="translate(147.497673, 205.178545)"><g><path d="M 27.1875 -15.75 L 27.1875 -2.921875 L 30.859375 -2.921875 L 30.859375 0 L 18.65625 0 L 18.65625 -3.25 C 17.53125 -1.90625 16.273438 -0.910156 14.890625 -0.265625 C 13.515625 0.378906 11.941406 0.703125 10.171875 0.703125 C 7.554688 0.703125 5.546875 0 4.140625 -1.40625 C 2.734375 -2.8125 2.03125 -4.828125 2.03125 -7.453125 C 2.03125 -10.328125 3.035156 -12.476562 5.046875 -13.90625 C 7.066406 -15.34375 10.109375 -16.0625 14.171875 -16.0625 L 18.65625 -16.0625 L 18.65625 -17.578125 C 18.65625 -19.648438 18.164062 -21.179688 17.1875 -22.171875 C 16.207031 -23.160156 14.691406 -23.65625 12.640625 -23.65625 C 10.929688 -23.65625 9.613281 -23.300781 8.6875 -22.59375 C 7.769531 -21.894531 7.113281 -20.753906 6.71875 -19.171875 L 4 -19.171875 L 4 -24.6875 C 5.53125 -25.226562 7.113281 -25.632812 8.75 -25.90625 C 10.382812 -26.1875 12.113281 -26.328125 13.9375 -26.328125 C 18.519531 -26.328125 21.875 -25.472656 24 -23.765625 C 26.125 -22.066406 27.1875 -19.394531 27.1875 -15.75 Z M 18.65625 -8.046875 L 18.65625 -13.1875 L 15.453125 -13.1875 C 13.859375 -13.1875 12.632812 -12.75 11.78125 -11.875 C 10.9375 -11.007812 10.515625 -9.769531 10.515625 -8.15625 C 10.515625 -6.53125 10.820312 -5.3125 11.4375 -4.5 C 12.0625 -3.695312 13.003906 -3.296875 14.265625 -3.296875 C 15.585938 -3.296875 16.648438 -3.726562 17.453125 -4.59375 C 18.253906 -5.46875 18.65625 -6.617188 18.65625 -8.046875 Z M 18.65625 -8.046875 "/></g></g></g><g fill="#fafafa" fill-opacity="1"><g transform="translate(179.492778, 205.178545)"><g><path d="M 21.1875 -11.546875 L 21.1875 -14.078125 C 21.1875 -17.066406 20.800781 -19.226562 20.03125 -20.5625 C 19.257812 -21.894531 18.03125 -22.5625 16.34375 -22.5625 C 14.570312 -22.5625 13.328125 -21.859375 12.609375 -20.453125 C 11.898438 -19.046875 11.546875 -16.503906 11.546875 -12.828125 C 11.546875 -9.148438 11.90625 -6.601562 12.625 -5.1875 C 13.351562 -3.769531 14.59375 -3.0625 16.34375 -3.0625 C 18.03125 -3.0625 19.257812 -3.726562 20.03125 -5.0625 C 20.800781 -6.394531 21.1875 -8.554688 21.1875 -11.546875 Z M 29.71875 -2.921875 L 33.359375 -2.921875 L 33.359375 0 L 21.1875 0 L 21.1875 -3.25 C 20.46875 -1.914062 19.492188 -0.921875 18.265625 -0.265625 C 17.035156 0.378906 15.519531 0.703125 13.71875 0.703125 C 10.082031 0.703125 7.222656 -0.5 5.140625 -2.90625 C 3.066406 -5.320312 2.03125 -8.628906 2.03125 -12.828125 C 2.03125 -17.035156 3.066406 -20.335938 5.140625 -22.734375 C 7.222656 -25.128906 10.082031 -26.328125 13.71875 -26.328125 C 15.519531 -26.328125 17.035156 -26 18.265625 -25.34375 C 19.492188 -24.695312 20.46875 -23.707031 21.1875 -22.375 L 21.1875 -34.625 L 17.53125 -34.625 L 17.53125 -37.515625 L 29.71875 -37.515625 Z M 29.71875 -2.921875 "/></g></g></g><g fill="#fafafa" fill-opacity="1"><g transform="translate(214.019509, 205.178545)"><g><path d="M 4.53125 -32.890625 C 4.53125 -34.191406 4.976562 -35.285156 5.875 -36.171875 C 6.78125 -37.066406 7.882812 -37.515625 9.1875 -37.515625 C 10.457031 -37.515625 11.535156 -37.066406 12.421875 -36.171875 C 13.316406 -35.285156 13.765625 -34.191406 13.765625 -32.890625 C 13.765625 -31.617188 13.316406 -30.535156 12.421875 -29.640625 C 11.535156 -28.742188 10.457031 -28.296875 9.1875 -28.296875 C 7.882812 -28.296875 6.78125 -28.738281 5.875 -29.625 C 4.976562 -30.507812 4.53125 -31.597656 4.53125 -32.890625 Z M 13.859375 -2.921875 L 17.53125 -2.921875 L 17.53125 0 L 1.6875 0 L 1.6875 -2.921875 L 5.328125 -2.921875 L 5.328125 -22.703125 L 1.6875 -22.703125 L 1.6875 -25.625 L 13.859375 -25.625 Z M 13.859375 -2.921875 "/></g></g></g><g fill="#fafafa" fill-opacity="1"><g transform="translate(232.777747, 205.178545)"><g><path d="M 23.890625 -31.09375 L 21.1875 -31.09375 C 21.0625 -32.351562 20.695312 -33.285156 20.09375 -33.890625 C 19.488281 -34.503906 18.632812 -34.8125 17.53125 -34.8125 C 16.238281 -34.8125 15.300781 -34.347656 14.71875 -33.421875 C 14.144531 -32.503906 13.859375 -31.007812 13.859375 -28.9375 L 13.859375 -25.625 L 20.296875 -25.625 L 20.296875 -22.703125 L 13.859375 -22.703125 L 13.859375 -2.921875 L 18.8125 -2.921875 L 18.8125 0 L 1.6875 0 L 1.6875 -2.921875 L 5.328125 -2.921875 L 5.328125 -22.703125 L 1.515625 -22.703125 L 1.515625 -25.625 L 5.328125 -25.625 L 5.328125 -28.828125 C 5.328125 -31.671875 6.234375 -33.828125 8.046875 -35.296875 C 9.867188 -36.773438 12.539062 -37.515625 16.0625 -37.515625 C 17.425781 -37.515625 18.757812 -37.4375 20.0625 -37.28125 C 21.363281 -37.132812 22.640625 -36.90625 23.890625 -36.59375 Z M 23.890625 -31.09375 "/></g></g></g><g fill="#fafafa" fill-opacity="1"><g transform="translate(254.019415, 205.178545)"><g><path d="M 15.40625 5.78125 C 14.632812 7.664062 13.703125 9 12.609375 9.78125 C 11.515625 10.570312 10.046875 10.96875 8.203125 10.96875 C 7.410156 10.96875 6.53125 10.878906 5.5625 10.703125 C 4.601562 10.523438 3.550781 10.269531 2.40625 9.9375 L 2.40625 4.578125 L 5.140625 4.609375 C 5.179688 5.847656 5.472656 6.765625 6.015625 7.359375 C 6.554688 7.953125 7.363281 8.25 8.4375 8.25 C 9.476562 8.25 10.320312 7.960938 10.96875 7.390625 C 11.613281 6.816406 12.253906 5.734375 12.890625 4.140625 L 13.28125 3.25 L 2.125 -22.703125 L -0.65625 -22.703125 L -0.65625 -25.625 L 14.125 -25.625 L 14.125 -22.703125 L 11.0625 -22.703125 L 17.578125 -7.546875 L 23.65625 -22.703125 L 20.25 -22.703125 L 20.25 -25.625 L 29.875 -25.625 L 29.875 -22.703125 L 26.765625 -22.703125 Z M 15.40625 5.78125 "/></g></g></g><g fill="#fafafa" fill-opacity="1"><g transform="translate(282.711322, 205.178545)"><g><path d="M 4 -3.90625 C 4 -5.15625 4.445312 -6.226562 5.34375 -7.125 C 6.25 -8.03125 7.328125 -8.484375 8.578125 -8.484375 C 9.847656 -8.484375 10.929688 -8.03125 11.828125 -7.125 C 12.734375 -6.226562 13.1875 -5.15625 13.1875 -3.90625 C 13.1875 -2.632812 12.734375 -1.546875 11.828125 -0.640625 C 10.929688 0.253906 9.847656 0.703125 8.578125 0.703125 C 7.328125 0.703125 6.25 0.253906 5.34375 -0.640625 C 4.445312 -1.546875 4 -2.632812 4 -3.90625 Z M 4 -3.90625 "/></g></g></g></svg>